<svg version="1.1" xmlns="http://www.w3.org/2000/svg" viewBox="0 0 341 337" width="682" height="674">
  <!-- svg-source:excalidraw -->
  
  <defs>
    <style class="style-fonts">
      @font-face {
        font-family: "Virgil";
        src: url("https://excalidraw.com/Virgil.woff2");
      }
      @font-face {
        font-family: "Cascadia";
        src: url("https://excalidraw.com/Cascadia.woff2");
      }
    </style>
    
  </defs>
  <rect x="0" y="0" width="341" height="337" fill="#ffffff"></rect><g stroke-linecap="round" transform="translate(10 126) rotate(0 43.5 43.5)"><path d="M57.53 2.02 C64.87 3.71, 73.34 9.34, 78.31 15.43 C83.28 21.52, 86.76 30.42, 87.34 38.54 C87.93 46.66, 85.5 56.91, 81.82 64.14 C78.14 71.38, 72.07 78.29, 65.25 81.93 C58.43 85.58, 48.77 86.37, 40.93 85.99 C33.08 85.61, 24.35 84.12, 18.18 79.64 C12.01 75.16, 6.9 66.41, 3.9 59.11 C0.9 51.81, -1.28 43.43, 0.18 35.84 C1.63 28.24, 7.3 19.37, 12.63 13.54 C17.96 7.72, 24.27 2.63, 32.17 0.88 C40.06 -0.88, 55.16 2.48, 60.01 3 C64.85 3.52, 61.47 3.17, 61.24 4 M52.77 -0.3 C59.99 0.59, 67.05 7.13, 72.33 13 C77.6 18.87, 82.35 27.38, 84.42 34.9 C86.49 42.43, 87.28 50.82, 84.74 58.16 C82.2 65.49, 75.43 74.09, 69.18 78.91 C62.93 83.74, 54.74 86.36, 47.26 87.11 C39.78 87.85, 31.07 87.08, 24.31 83.36 C17.55 79.65, 10.58 71.62, 6.72 64.81 C2.87 57.99, 0.89 50.19, 1.16 42.47 C1.44 34.75, 4.03 25.3, 8.37 18.49 C12.7 11.69, 20.08 4.41, 27.17 1.63 C34.26 -1.15, 46.76 1.58, 50.93 1.8 C55.1 2.03, 51.94 2.43, 52.21 2.98" stroke="#000000" stroke-width="1" fill="none"></path></g><g transform="translate(44.5575216214736 152.24085501838516) rotate(0 9.183333396911621 17.5)"><text x="9.183333396911621" y="0" font-family="Virgil, Segoe UI Emoji" font-size="28px" fill="#000000" text-anchor="middle" style="white-space: pre;" direction="ltr" dominant-baseline="text-before-edge">A</text></g><g stroke-linecap="round" transform="translate(240 123) rotate(0 45.5 46.5)"><path d="M64.58 5.27 C71.85 8.15, 79.71 15.15, 84.22 22.32 C88.74 29.5, 91.72 39.99, 91.68 48.32 C91.64 56.65, 88.55 65.34, 83.99 72.3 C79.43 79.26, 71.94 86.68, 64.31 90.08 C56.68 93.48, 46.47 94.37, 38.21 92.71 C29.94 91.05, 20.95 85.68, 14.72 80.12 C8.49 74.56, 2.92 67.14, 0.85 59.35 C-1.21 51.56, -0.41 41.47, 2.32 33.37 C5.06 25.27, 11.1 16.15, 17.27 10.76 C23.44 5.36, 31.29 1.97, 39.36 1 C47.42 0.02, 60.8 3.95, 65.64 4.91 C70.49 5.88, 68.72 5.91, 68.42 6.79 M64.41 3.09 C72.04 5.43, 78.77 13.48, 83.36 20.58 C87.96 27.68, 92.03 37.08, 91.96 45.68 C91.9 54.28, 87.42 65.03, 83 72.18 C78.58 79.33, 72.66 85.41, 65.46 88.58 C58.26 91.74, 47.89 92.36, 39.8 91.18 C31.71 90, 22.96 86.82, 16.9 81.5 C10.84 76.19, 5.86 67.03, 3.46 59.29 C1.06 51.55, 0.6 43.02, 2.5 35.06 C4.39 27.1, 8.76 17.28, 14.82 11.53 C20.89 5.78, 30.85 1.74, 38.89 0.56 C46.92 -0.61, 59.08 3.96, 63.03 4.48 C66.98 5.01, 62.82 2.89, 62.57 3.72" stroke="#000000" stroke-width="1" fill="none"></path></g><g transform="translate(275.1433080591005 152.11953467482556) rotate(0 10.183333396911621 17.5)"><text x="10.183333396911621" y="0" font-family="Virgil, Segoe UI Emoji" font-size="28px" fill="#000000" text-anchor="middle" style="white-space: pre;" direction="ltr" dominant-baseline="text-before-edge">B</text></g><g stroke-linecap="round"><g transform="translate(58 114) rotate(0 96.45564298791345 -26.607828675110596)"><path d="M-0.13 -0.02 C18.57 -9.85, 80.23 -59.11, 112.68 -58.26 C145.13 -57.42, 180.82 -5.44, 194.57 5.06 M-1.66 -1.07 C16.91 -10.79, 79.55 -57.59, 112.09 -56.86 C144.63 -56.14, 179.68 -6.63, 193.58 3.27" stroke="#000000" stroke-width="1" fill="none"></path></g></g><mask></mask><g stroke-linecap="round"><g transform="translate(260 220) rotate(0 -91.3341220233263 25.81416956781743)"><path d="M0.63 -0.65 C-16.19 8.36, -70.69 54.2, -101.19 53.92 C-131.68 53.65, -168.99 6.99, -182.35 -2.3 M-0.5 1.62 C-17.39 10.32, -71.24 52.75, -101.71 52.29 C-132.17 51.83, -170.12 7.68, -183.29 -1.14" stroke="#000000" stroke-width="1" fill="none"></path></g></g><mask></mask><g stroke-linecap="round"><g transform="translate(245 125) rotate(0 9.346395554393553 -7.740193869918585)"><path d="M-0.83 1.18 C2.33 -1.52, 16 -13.92, 19.52 -16.67 M0.94 0.76 C3.85 -1.75, 15.2 -12.47, 18.32 -15.48" stroke="#000000" stroke-width="1" fill="none"></path></g></g><mask></mask><g stroke-linecap="round"><g transform="translate(69 223) rotate(0 11.200732191461157 -8.426198042514727)"><path d="M1.2 0.28 C4.74 -2.13, 18.8 -12.78, 22.04 -15.35 M0.36 -0.62 C3.78 -3.3, 18.42 -14.39, 21.63 -17.13" stroke="#000000" stroke-width="1" fill="none"></path></g></g><mask></mask><g transform="translate(109 10) rotate(0 53.099998474121094 17.5)"><text x="0" y="0" font-family="Virgil, Segoe UI Emoji" font-size="28px" fill="#000000" text-anchor="start" style="white-space: pre;" direction="ltr" dominant-baseline="text-before-edge">no heat</text></g><g transform="translate(84 292) rotate(0 72.25 17.5)"><text x="0" y="0" font-family="Virgil, Segoe UI Emoji" font-size="28px" fill="#000000" text-anchor="start" style="white-space: pre;" direction="ltr" dominant-baseline="text-before-edge">no lactose</text></g></svg>